<mxfile host="app.diagrams.net" modified="2021-02-26T02:53:32.694Z" agent="5.0 (X11; Linux x86_64) AppleWebKit/537.36 (KHTML, like Gecko) Chrome/88.0.4324.182 Safari/537.36" etag="eddYzpSh38hi7XTIchGZ" version="14.4.3" type="github">
  <diagram id="u2YCz3I5AumBD-Mo3Qc9" name="Page-1">
    <mxGraphModel dx="1373" dy="1803" grid="1" gridSize="10" guides="1" tooltips="1" connect="1" arrows="1" fold="1" page="1" pageScale="1" pageWidth="850" pageHeight="1100" math="0" shadow="0">
      <root>
        <mxCell id="0" />
        <mxCell id="1" parent="0" />
        <mxCell id="xAzYRujc0JpYtscGENq7-4" style="edgeStyle=orthogonalEdgeStyle;rounded=0;orthogonalLoop=1;jettySize=auto;html=1;exitX=0.5;exitY=1;exitDx=0;exitDy=0;entryX=0.5;entryY=0;entryDx=0;entryDy=0;dashed=1;endArrow=open;endFill=0;strokeWidth=2;" parent="1" source="xAzYRujc0JpYtscGENq7-5" target="xAzYRujc0JpYtscGENq7-3" edge="1">
          <mxGeometry relative="1" as="geometry" />
        </mxCell>
        <mxCell id="xAzYRujc0JpYtscGENq7-2" value="&lt;font style=&quot;font-size: 18px&quot;&gt;fetch frames&lt;/font&gt;" style="ellipse;whiteSpace=wrap;html=1;strokeWidth=2;" parent="1" vertex="1">
          <mxGeometry x="425" y="220" width="120" height="80" as="geometry" />
        </mxCell>
        <mxCell id="xAzYRujc0JpYtscGENq7-3" value="&lt;font style=&quot;font-size: 18px&quot;&gt;model&lt;/font&gt;" style="ellipse;whiteSpace=wrap;html=1;strokeWidth=2;" parent="1" vertex="1">
          <mxGeometry x="425" y="420" width="120" height="80" as="geometry" />
        </mxCell>
        <mxCell id="xAzYRujc0JpYtscGENq7-5" value="&lt;font style=&quot;font-size: 18px&quot;&gt;&amp;lt;&amp;lt;extends&amp;gt;&amp;gt;&lt;/font&gt;" style="text;html=1;align=center;verticalAlign=middle;resizable=0;points=[];autosize=1;strokeWidth=2;" parent="1" vertex="1">
          <mxGeometry x="425" y="350" width="120" height="20" as="geometry" />
        </mxCell>
        <mxCell id="xAzYRujc0JpYtscGENq7-6" style="edgeStyle=orthogonalEdgeStyle;rounded=0;orthogonalLoop=1;jettySize=auto;html=1;exitX=0.5;exitY=1;exitDx=0;exitDy=0;entryX=0.5;entryY=0;entryDx=0;entryDy=0;dashed=1;endArrow=none;endFill=0;strokeWidth=2;" parent="1" source="xAzYRujc0JpYtscGENq7-2" target="xAzYRujc0JpYtscGENq7-5" edge="1">
          <mxGeometry relative="1" as="geometry">
            <mxPoint x="485" y="300" as="sourcePoint" />
            <mxPoint x="485" y="420" as="targetPoint" />
          </mxGeometry>
        </mxCell>
        <mxCell id="xAzYRujc0JpYtscGENq7-15" value="" style="edgeStyle=orthogonalEdgeStyle;rounded=0;orthogonalLoop=1;jettySize=auto;html=1;endArrow=open;endFill=0;strokeWidth=2;" parent="1" source="xAzYRujc0JpYtscGENq7-7" edge="1">
          <mxGeometry relative="1" as="geometry">
            <mxPoint x="420" y="-160" as="targetPoint" />
          </mxGeometry>
        </mxCell>
        <mxCell id="xAzYRujc0JpYtscGENq7-7" value="&lt;font style=&quot;font-size: 18px&quot;&gt;user&lt;/font&gt;" style="shape=umlActor;verticalLabelPosition=bottom;verticalAlign=top;html=1;outlineConnect=0;strokeWidth=2;" parent="1" vertex="1">
          <mxGeometry x="100" y="-190" width="30" height="60" as="geometry" />
        </mxCell>
        <mxCell id="xAzYRujc0JpYtscGENq7-26" style="edgeStyle=none;rounded=0;orthogonalLoop=1;jettySize=auto;html=1;exitX=0.5;exitY=1;exitDx=0;exitDy=0;entryX=0.07;entryY=0.169;entryDx=0;entryDy=0;entryPerimeter=0;dashed=1;endArrow=open;endFill=0;strokeWidth=2;" parent="1" source="xAzYRujc0JpYtscGENq7-8" target="xAzYRujc0JpYtscGENq7-3" edge="1">
          <mxGeometry relative="1" as="geometry" />
        </mxCell>
        <mxCell id="xAzYRujc0JpYtscGENq7-8" value="&lt;font style=&quot;font-size: 18px&quot;&gt;select camera&lt;/font&gt;" style="ellipse;whiteSpace=wrap;html=1;strokeWidth=2;" parent="1" vertex="1">
          <mxGeometry x="250" y="140" width="120" height="80" as="geometry" />
        </mxCell>
        <mxCell id="xAzYRujc0JpYtscGENq7-9" value="&lt;font style=&quot;font-size: 18px&quot;&gt;login&lt;/font&gt;" style="ellipse;whiteSpace=wrap;html=1;strokeWidth=2;" parent="1" vertex="1">
          <mxGeometry x="425" y="-200" width="120" height="80" as="geometry" />
        </mxCell>
        <mxCell id="xAzYRujc0JpYtscGENq7-25" style="edgeStyle=none;rounded=0;orthogonalLoop=1;jettySize=auto;html=1;exitX=0.5;exitY=1;exitDx=0;exitDy=0;entryX=0.446;entryY=0.041;entryDx=0;entryDy=0;entryPerimeter=0;endArrow=open;endFill=0;dashed=1;strokeWidth=2;" parent="1" source="xAzYRujc0JpYtscGENq7-10" target="xAzYRujc0JpYtscGENq7-2" edge="1">
          <mxGeometry relative="1" as="geometry" />
        </mxCell>
        <mxCell id="xAzYRujc0JpYtscGENq7-10" value="&lt;font style=&quot;font-size: 18px&quot;&gt;select person&lt;/font&gt;" style="ellipse;whiteSpace=wrap;html=1;strokeWidth=2;" parent="1" vertex="1">
          <mxGeometry x="420" y="-40" width="120" height="80" as="geometry" />
        </mxCell>
        <mxCell id="xAzYRujc0JpYtscGENq7-11" value="&lt;font style=&quot;font-size: 18px&quot;&gt;&amp;lt;&amp;lt;extends&amp;gt;&amp;gt;&lt;/font&gt;" style="text;html=1;align=center;verticalAlign=middle;resizable=0;points=[];autosize=1;strokeWidth=2;" parent="1" vertex="1">
          <mxGeometry x="425" y="120" width="120" height="20" as="geometry" />
        </mxCell>
        <mxCell id="xAzYRujc0JpYtscGENq7-12" value="&lt;font style=&quot;font-size: 18px&quot;&gt;&amp;lt;&amp;lt;extends&amp;gt;&amp;gt;&lt;/font&gt;" style="text;html=1;align=center;verticalAlign=middle;resizable=0;points=[];autosize=1;strokeWidth=2;" parent="1" vertex="1">
          <mxGeometry x="270" y="260" width="120" height="20" as="geometry" />
        </mxCell>
        <mxCell id="xAzYRujc0JpYtscGENq7-24" style="rounded=0;orthogonalLoop=1;jettySize=auto;html=1;exitX=1;exitY=1;exitDx=0;exitDy=0;exitPerimeter=0;entryX=0;entryY=0;entryDx=0;entryDy=0;endArrow=open;endFill=0;strokeWidth=2;" parent="1" source="xAzYRujc0JpYtscGENq7-21" target="xAzYRujc0JpYtscGENq7-8" edge="1">
          <mxGeometry relative="1" as="geometry" />
        </mxCell>
        <mxCell id="xAzYRujc0JpYtscGENq7-21" value="&lt;span style=&quot;font-size: 18px&quot;&gt;admin&lt;/span&gt;" style="shape=umlActor;verticalLabelPosition=bottom;verticalAlign=top;html=1;outlineConnect=0;strokeWidth=2;" parent="1" vertex="1">
          <mxGeometry x="60" y="-30" width="30" height="60" as="geometry" />
        </mxCell>
        <mxCell id="xAzYRujc0JpYtscGENq7-23" value="" style="edgeStyle=orthogonalEdgeStyle;rounded=0;orthogonalLoop=1;jettySize=auto;html=1;endArrow=open;endFill=0;entryX=0;entryY=0.5;entryDx=0;entryDy=0;strokeWidth=2;" parent="1" target="xAzYRujc0JpYtscGENq7-10" edge="1">
          <mxGeometry relative="1" as="geometry">
            <mxPoint x="90" as="sourcePoint" />
            <mxPoint x="380" as="targetPoint" />
          </mxGeometry>
        </mxCell>
        <mxCell id="xAzYRujc0JpYtscGENq7-27" value="" style="rounded=0;whiteSpace=wrap;html=1;fillColor=none;strokeWidth=2;" parent="1" vertex="1">
          <mxGeometry x="170" y="-260" width="560" height="790" as="geometry" />
        </mxCell>
      </root>
    </mxGraphModel>
  </diagram>
</mxfile>
